<svg xmlns="http://www.w3.org/2000/svg" viewBox="0 0 1464 24" width="1464" height="24"><path d="M3 6h18M3 12h15M3 18h12M27 6h18m-18 6h15m-15 6h12M51 6h18m-18 6h15m-15 6h12M75 6h18m-18 6h15m-15 6h12M99 6h18m-18 6h15m-15 6h12M123 6h18m-18 6h15m-15 6h12M147 6h18m-18 6h15m-15 6h12M171 6h18m-18 6h15m-15 6h12M195 6h18m-18 6h15m-15 6h12M219 6h18m-18 6h15m-15 6h12M243 6h18m-18 6h15m-15 6h12M267 6h18m-18 6h15m-15 6h12M291 6h18m-18 6h15m-15 6h12M315 6h18m-18 6h15m-15 6h12M339 6h18m-18 6h15m-15 6h12M363 6h18m-18 6h15m-15 6h12M387 6h18m-18 6h15m-15 6h12M411 6h18m-18 6h15m-15 6h12M435 6h18m-18 6h15m-15 6h12M459 6h18m-18 6h15m-15 6h12M483 6h18m-18 6h15m-15 6h12M507 6h18m-18 6h15m-15 6h12M531 6h18m-18 6h15m-15 6h12M555 6h18m-18 6h15m-15 6h12M579 6h18m-18 6h15m-15 6h12M603 6h18m-18 6h15m-15 6h12M627 6h18m-18 6h15m-15 6h12M651 6h18m-18 6h15m-15 6h12M675 6h18m-18 6h15m-15 6h12M699 6h18m-18 6h15m-15 6h12M723 6h18m-3 6h-15m12 6h-12M747 6l18 .037m-2.993 5.948L747 12.022m12.015 5.948L747 18.007M771 6l18 .16m-2.968 5.776l-15.032.16m12.064 5.776l-12.064.16M795 6l18 .388m-2.922 5.457L795 12.233m12.155 5.457L795 18.078M819 6l18 .749m-2.85 4.951l-15.15.749m12.3 4.952l-12.3.749M843 6l18 1.277m-2.745 4.212L843 12.766m12.511 4.213L843 18.255M867 6l18 2.009m-2.598 3.187L867 13.206m12.804 3.187L867 18.402M891 6l18 2.977m-2.405 1.832L891 13.786m13.191 1.832L891 18.595M915 6l18 4.171m-2.166.161L915 14.502m13.668.161L915 18.834M939 6l18 5.509m-1.898-1.713L939 15.306m14.204-1.714L939 19.102M963 6l18 6.859m-1.628-3.603L963 16.115m14.744-3.602L963 19.372M987 6l18 8.107m-1.379-5.35L987 16.864m15.243-5.349L987 19.621M1011 6l18 9.204m-1.159-6.886L1011 17.522m15.682-6.885L1011 19.841M1035 6l18 10.146m-.971-8.205L1035 18.088m16.059-8.205L1035 20.029M1059 6l18 10.95m-.81-9.33L1059 18.57m16.38-9.33L1059 20.19M1083 6l18 11.633m-.673-10.286L1083 18.98m16.653-10.287L1083 20.327M1107 6l18 12.216m-.557-11.103L1107 19.33m16.887-11.103L1107 20.443M1131 6l18 12.714m-.457-11.8L1131 19.629m17.086-11.8L1131 20.543M1155 6l18 13.14m-.372-12.396L1155 19.884m17.256-12.396L1155 20.628M1179 6l18 13.503m-.299-12.904L1179 20.102m17.401-12.904L1179 20.701M1203 6l18 13.812m-.238-13.337L1203 20.287m17.525-13.336L1203 20.762M1227 6l18 14.074m-.185-13.703L1227 20.444m17.629-13.703L1227 20.815M1251 6l18 14.294m-.141-14.012L1251 20.577m17.718-14.012L1251 20.859M1275 6l18 14.478m-.104-14.269L1275 20.687m17.791-14.269L1275 20.896M1299 6l18 14.629m-.074-14.481L1299 20.777m17.852-14.48L1299 20.926M1323 6l18 14.75m-.05-14.65L1323 20.85m17.9-14.65L1323 20.95M1347 6l18 14.845m-.031-14.783L1347 20.907m17.938-14.783L1347 20.969M1371 6l18 14.915m-.017-14.881L1371 20.949m17.966-14.881L1371 20.983M1395 6l18 14.963m-.007-14.948L1395 20.978m17.985-14.949L1395 20.993M1419 6l18 14.991m-.002-14.987L1419 20.995m17.996-14.988L1419 20.998M1443 6l18 15m0-15l-18 15m18-15l-18 15" fill="#ffffff" stroke="#ffffff" stroke-miterlimit="10"/></svg>